# xmcd
#
# Track frame offsets: 
#        150
#        9997
#        22617
#        35205
#        45305
#        59017
#        71242
#        83752
#        95190
#        106417
#        121065
#        140835
#        153165
#        165690
#
# Disc length: 2393 seconds
#
# Revision: 3
# Processed by: cddbd v1.5.2PL0 Copyright (c) Steve Scherf et al.
# Submitted via: ExactAudioCopy v0.95b3
#
DISCID=b609570e
DTITLE=Koko Taylor - Koko Taylor (2001 rem)
DYEAR=1969
DGENRE=Blues
TTITLE0=Love You Like A Woman
TTITLE1=I Love A Lover Like You
TTITLE2=Don't Mess With The Messer
TTITLE3=I Don't Care Who Knows
TTITLE4=Wang Dang Doodle
TTITLE5=I'm A Little Mixed Up
TTITLE6=Nitty Gritty
TTITLE7=Fire
TTITLE8=Whatever I Am, You Made Me
TTITLE9=29 Ways (To My Baby's Door)
TTITLE10=Insane Asylum
TTITLE11=Yes, It's Good For You
TTITLE12=Love Sick Tears (bonus)
TTITLE13=He Always Knocks Me Out (bonus)
EXTD=
EXTT0=1968
EXTT1=1969
EXTT2=
EXTT3=
EXTT4=
EXTT5=
EXTT6=
EXTT7=
EXTT8=
EXTT9=
EXTT10=
EXTT11=
EXTT12=
EXTT13=
PLAYORDER=
